<?xml version="1.0" encoding="utf-8"?>
<!-- Svg Vector Icons : http://www.onlinewebfonts.com/icon -->
<!DOCTYPE svg PUBLIC "-//W3C//DTD SVG 1.1//EN" "http://www.w3.org/Graphics/SVG/1.1/DTD/svg11.dtd">
<svg version="1.1" xmlns="http://www.w3.org/2000/svg" xmlns:xlink="http://www.w3.org/1999/xlink" x="0px" y="0px" viewBox="0 0 256 256" enable-background="new 0 0 256 256" xml:space="preserve">
<metadata> Svg Vector Icons : http://www.onlinewebfonts.com/icon </metadata>
<g><g><g><path fill="#000000" d="M116.3,2.5c-13.9,1.5-30.3,6.6-42.1,13.1c-34.6,19-57.6,53.6-63.6,95.3c-1,6.9-0.8,28.6,0.2,35.7c4.5,29.1,16.7,53.8,36,73.1c19.5,19.4,43.6,31,70.4,33.7c16.7,1.7,38.7-3.1,56.4-12.4c7.1-3.8,9.3-5.5,11.4-9.4c1.6-2.9,1.7-3.4,1.7-7.5c0-5.1-0.9-7.7-4-11.1c-2.9-3.1-6.1-4.6-10.3-4.6c-3.4,0-3.7,0-10.8,3.7c-10.7,5.5-18.2,7.9-29.2,9.5c-15.3,2.2-34.7-2.8-50.4-13C46,185.6,30.4,139,44.3,96.7c13.4-40.9,52-67.2,92.4-62.7c34.4,3.8,63.5,28.3,74.9,62.9c3.8,11.8,4.9,20,4.9,37.4c0,13.9-0.3,15.5-3.4,19.6c-1.2,1.7-2.8,2.9-5,4c-3,1.6-3.4,1.7-6.9,1.5c-5.9-0.3-10.1-3.3-12.7-8.8c-1.2-2.7-1.3-2.9-1.6-17.5c-0.3-13.4-0.4-15.3-1.6-19.9c-6.5-27.3-28.1-46.4-54.3-48c-25.9-1.7-50.1,15.7-59,42.1c-4.3,13-4.3,28.1,0,41.3c3.2,10,7.8,17.5,15.5,25.1c9.3,9.4,19.6,14.8,32.2,16.7c5.7,0.9,16.9,0.3,22.4-1.2c8.1-2.3,16-6.5,22.7-12.3l3.3-2.8l1.9,2.3c4.2,5.2,12.9,10.7,20.4,13.1c3.2,1,4.7,1.1,11.3,1.1c6.6,0,8.1-0.1,11.3-1.1c11.1-3.5,19.6-10.3,25.9-21c2.9-4.9,5.8-13,6.5-18.7c0.8-5.7,0.7-28.3-0.2-36.3c-1.7-15.8-5.9-30.2-13.1-44.7c-6.6-13.3-14-23.4-24.9-34C190,18,169.7,7.7,146.6,3.7C138.4,2.2,123.9,1.7,116.3,2.5z M133.6,97.2c19.2,4,29.5,26.9,20.5,45.3c-5.3,10.8-14.9,17-26.1,17c-9,0-17.1-4-22.7-11.4c-12.2-15.7-7-40.1,10.3-48.5C121.6,96.6,127.2,95.9,133.6,97.2z"/></g></g></g>
</svg>