<?xml version="1.0" encoding="utf-8"?>
<!-- Svg Vector Icons : http://www.onlinewebfonts.com/icon -->
<!DOCTYPE svg PUBLIC "-//W3C//DTD SVG 1.1//EN" "http://www.w3.org/Graphics/SVG/1.1/DTD/svg11.dtd">
<svg version="1.1" xmlns="http://www.w3.org/2000/svg" xmlns:xlink="http://www.w3.org/1999/xlink" x="0px" y="0px" viewBox="0 0 256 256" enable-background="new 0 0 256 256" xml:space="preserve">
<metadata> Svg Vector Icons : http://www.onlinewebfonts.com/icon </metadata>
<g><g><path fill="#000000" d="M217.4,10H38.6C22.8,10,10,22.8,10,38.6v178.7c0,15.8,12.8,28.7,28.6,28.7h178.7c15.8,0,28.6-12.8,28.6-28.6V38.6C246,22.8,233.2,10,217.4,10z M85.1,206.5H52.7V101.8h32.4V206.5z M68.7,88.1c-10.6,0-19.1-8.6-19.1-19.3s8.6-19.3,19.1-19.3c10.6,0,19.1,8.6,19.1,19.3C87.9,79.5,79.3,88.1,68.7,88.1z M206.5,206.5h-32.2c0,0,0-39.9,0-54.9s-5.7-23.5-17.6-23.5c-13,0-19.8,8.8-19.8,23.5c0,16.1,0,54.9,0,54.9h-31.1V101.8h31.1v14.1c0,0,9.3-17.3,31.5-17.3c22.2,0,38.1,13.6,38.1,41.6C206.5,168.2,206.5,206.5,206.5,206.5z"/></g></g>
</svg>